<mxfile host="Electron" modified="2023-05-30T01:16:39.825Z" agent="Mozilla/5.0 (X11; Linux x86_64) AppleWebKit/537.36 (KHTML, like Gecko) draw.io/21.2.8 Chrome/112.0.5615.165 Electron/24.2.0 Safari/537.36" etag="Is7K5wc3iB8zhgkykoBd" version="21.2.8" type="device">
  <diagram name="Page-1" id="zlkbn_hbkn5L2i57eitW">
    <mxGraphModel dx="1442" dy="1480" grid="1" gridSize="10" guides="1" tooltips="1" connect="1" arrows="1" fold="1" page="1" pageScale="1" pageWidth="827" pageHeight="1169" math="0" shadow="0">
      <root>
        <mxCell id="0" />
        <mxCell id="1" parent="0" />
        <mxCell id="0AbKRahAa50qQqql9x28-26" value="" style="rounded=0;whiteSpace=wrap;html=1;" vertex="1" parent="1">
          <mxGeometry x="510" y="250" width="660" height="200" as="geometry" />
        </mxCell>
        <mxCell id="0AbKRahAa50qQqql9x28-6" style="edgeStyle=orthogonalEdgeStyle;rounded=0;orthogonalLoop=1;jettySize=auto;html=1;exitX=1;exitY=0.5;exitDx=0;exitDy=0;entryX=0;entryY=0.5;entryDx=0;entryDy=0;" edge="1" parent="1" source="0AbKRahAa50qQqql9x28-1" target="0AbKRahAa50qQqql9x28-4">
          <mxGeometry relative="1" as="geometry" />
        </mxCell>
        <mxCell id="0AbKRahAa50qQqql9x28-7" style="edgeStyle=orthogonalEdgeStyle;rounded=0;orthogonalLoop=1;jettySize=auto;html=1;exitX=1;exitY=0.5;exitDx=0;exitDy=0;" edge="1" parent="1" source="0AbKRahAa50qQqql9x28-1" target="0AbKRahAa50qQqql9x28-5">
          <mxGeometry relative="1" as="geometry" />
        </mxCell>
        <mxCell id="0AbKRahAa50qQqql9x28-1" value="patient&lt;br&gt;" style="text;html=1;strokeColor=none;fillColor=none;align=center;verticalAlign=middle;whiteSpace=wrap;rounded=0;" vertex="1" parent="1">
          <mxGeometry x="130" y="350" width="60" height="30" as="geometry" />
        </mxCell>
        <mxCell id="0AbKRahAa50qQqql9x28-8" style="edgeStyle=orthogonalEdgeStyle;rounded=0;orthogonalLoop=1;jettySize=auto;html=1;exitX=1;exitY=0.5;exitDx=0;exitDy=0;entryX=0.5;entryY=0;entryDx=0;entryDy=0;" edge="1" parent="1" source="0AbKRahAa50qQqql9x28-2" target="0AbKRahAa50qQqql9x28-5">
          <mxGeometry relative="1" as="geometry" />
        </mxCell>
        <mxCell id="0AbKRahAa50qQqql9x28-2" value="clinician" style="text;html=1;strokeColor=none;fillColor=none;align=center;verticalAlign=middle;whiteSpace=wrap;rounded=0;" vertex="1" parent="1">
          <mxGeometry x="130" y="230" width="60" height="30" as="geometry" />
        </mxCell>
        <mxCell id="0AbKRahAa50qQqql9x28-17" style="edgeStyle=orthogonalEdgeStyle;rounded=0;orthogonalLoop=1;jettySize=auto;html=1;exitX=1;exitY=0.5;exitDx=0;exitDy=0;entryX=0;entryY=0.5;entryDx=0;entryDy=0;" edge="1" parent="1" source="0AbKRahAa50qQqql9x28-4" target="0AbKRahAa50qQqql9x28-10">
          <mxGeometry relative="1" as="geometry" />
        </mxCell>
        <mxCell id="0AbKRahAa50qQqql9x28-4" value="EEG headbox" style="rounded=0;whiteSpace=wrap;html=1;" vertex="1" parent="1">
          <mxGeometry x="270" y="388" width="120" height="60" as="geometry" />
        </mxCell>
        <mxCell id="0AbKRahAa50qQqql9x28-16" style="edgeStyle=orthogonalEdgeStyle;rounded=0;orthogonalLoop=1;jettySize=auto;html=1;exitX=1;exitY=0.5;exitDx=0;exitDy=0;" edge="1" parent="1" source="0AbKRahAa50qQqql9x28-5" target="0AbKRahAa50qQqql9x28-10">
          <mxGeometry relative="1" as="geometry" />
        </mxCell>
        <mxCell id="0AbKRahAa50qQqql9x28-5" value="Handheld annotator" style="rounded=0;whiteSpace=wrap;html=1;" vertex="1" parent="1">
          <mxGeometry x="270" y="290" width="120" height="60" as="geometry" />
        </mxCell>
        <mxCell id="0AbKRahAa50qQqql9x28-23" style="edgeStyle=orthogonalEdgeStyle;rounded=0;orthogonalLoop=1;jettySize=auto;html=1;exitX=1;exitY=0.5;exitDx=0;exitDy=0;entryX=0;entryY=0.5;entryDx=0;entryDy=0;" edge="1" parent="1" source="0AbKRahAa50qQqql9x28-10" target="0AbKRahAa50qQqql9x28-11">
          <mxGeometry relative="1" as="geometry" />
        </mxCell>
        <mxCell id="0AbKRahAa50qQqql9x28-10" value="DAQ software" style="rounded=0;whiteSpace=wrap;html=1;" vertex="1" parent="1">
          <mxGeometry x="550" y="335" width="120" height="60" as="geometry" />
        </mxCell>
        <mxCell id="0AbKRahAa50qQqql9x28-24" style="edgeStyle=orthogonalEdgeStyle;rounded=0;orthogonalLoop=1;jettySize=auto;html=1;exitX=1;exitY=0.5;exitDx=0;exitDy=0;entryX=0;entryY=0.5;entryDx=0;entryDy=0;" edge="1" parent="1" source="0AbKRahAa50qQqql9x28-11" target="0AbKRahAa50qQqql9x28-12">
          <mxGeometry relative="1" as="geometry" />
        </mxCell>
        <mxCell id="0AbKRahAa50qQqql9x28-11" value="Preprocessing software" style="rounded=0;whiteSpace=wrap;html=1;" vertex="1" parent="1">
          <mxGeometry x="720" y="335" width="120" height="60" as="geometry" />
        </mxCell>
        <mxCell id="0AbKRahAa50qQqql9x28-25" style="edgeStyle=orthogonalEdgeStyle;rounded=0;orthogonalLoop=1;jettySize=auto;html=1;exitX=1;exitY=0.5;exitDx=0;exitDy=0;" edge="1" parent="1" source="0AbKRahAa50qQqql9x28-12" target="0AbKRahAa50qQqql9x28-13">
          <mxGeometry relative="1" as="geometry" />
        </mxCell>
        <mxCell id="0AbKRahAa50qQqql9x28-12" value="Feature extraction software" style="rounded=0;whiteSpace=wrap;html=1;" vertex="1" parent="1">
          <mxGeometry x="880" y="335" width="120" height="60" as="geometry" />
        </mxCell>
        <mxCell id="0AbKRahAa50qQqql9x28-31" style="edgeStyle=orthogonalEdgeStyle;rounded=0;orthogonalLoop=1;jettySize=auto;html=1;exitX=1;exitY=0.5;exitDx=0;exitDy=0;entryX=0;entryY=0.5;entryDx=0;entryDy=0;" edge="1" parent="1" source="0AbKRahAa50qQqql9x28-13" target="0AbKRahAa50qQqql9x28-27">
          <mxGeometry relative="1" as="geometry" />
        </mxCell>
        <mxCell id="0AbKRahAa50qQqql9x28-33" style="edgeStyle=orthogonalEdgeStyle;rounded=0;orthogonalLoop=1;jettySize=auto;html=1;exitX=1;exitY=0.5;exitDx=0;exitDy=0;entryX=0;entryY=0.5;entryDx=0;entryDy=0;" edge="1" parent="1" source="0AbKRahAa50qQqql9x28-13" target="0AbKRahAa50qQqql9x28-28">
          <mxGeometry relative="1" as="geometry" />
        </mxCell>
        <mxCell id="0AbKRahAa50qQqql9x28-13" value="ML model" style="rounded=0;whiteSpace=wrap;html=1;" vertex="1" parent="1">
          <mxGeometry x="1030" y="335" width="120" height="60" as="geometry" />
        </mxCell>
        <mxCell id="0AbKRahAa50qQqql9x28-14" value="&lt;font style=&quot;font-size: 24px;&quot;&gt;Computer&lt;/font&gt;" style="text;html=1;strokeColor=none;fillColor=none;align=center;verticalAlign=middle;whiteSpace=wrap;rounded=0;" vertex="1" parent="1">
          <mxGeometry x="815" y="270" width="70" height="30" as="geometry" />
        </mxCell>
        <mxCell id="0AbKRahAa50qQqql9x28-27" value="SZ Class" style="text;html=1;strokeColor=none;fillColor=none;align=center;verticalAlign=middle;whiteSpace=wrap;rounded=0;" vertex="1" parent="1">
          <mxGeometry x="1220" y="280" width="60" height="30" as="geometry" />
        </mxCell>
        <mxCell id="0AbKRahAa50qQqql9x28-28" value="Degree of SZ disorder" style="text;html=1;strokeColor=none;fillColor=none;align=center;verticalAlign=middle;whiteSpace=wrap;rounded=0;" vertex="1" parent="1">
          <mxGeometry x="1220" y="403" width="60" height="30" as="geometry" />
        </mxCell>
      </root>
    </mxGraphModel>
  </diagram>
</mxfile>
